<svg xmlns="http://www.w3.org/2000/svg" xmlns:xlink="http://www.w3.org/1999/xlink" width="400" zoomAndPan="magnify" viewBox="0 0 300 37.5" height="50" preserveAspectRatio="xMidYMid meet" version="1.0"><defs><g/><clipPath id="id1"><path d="M 1.972656 0 L 298.023438 0 L 298.023438 37.007812 L 1.972656 37.007812 Z M 1.972656 0 " clip-rule="nonzero"/></clipPath><clipPath id="id2"><path d="M 244.648438 8.339844 L 264.632812 8.339844 L 264.632812 28.324219 L 244.648438 28.324219 Z M 244.648438 8.339844 " clip-rule="nonzero"/></clipPath></defs><g clip-path="url(#id1)"><path fill="#ffffff" d="M 1.972656 0 L 298.027344 0 L 298.027344 44.40625 L 1.972656 44.40625 Z M 1.972656 0 " fill-opacity="1" fill-rule="nonzero"/><path fill="#919191" d="M 1.972656 0 L 298.027344 0 L 298.027344 37.007812 L 1.972656 37.007812 Z M 1.972656 0 " fill-opacity="1" fill-rule="nonzero"/><path fill="#ffffff" d="M 1.972656 0 L 298.027344 0 L 298.027344 37.007812 L 1.972656 37.007812 Z M 1.972656 0 " fill-opacity="1" fill-rule="nonzero"/><path fill="#919191" d="M 1.972656 0 L 298.027344 0 L 298.027344 37.007812 L 1.972656 37.007812 Z M 1.972656 0 " fill-opacity="1" fill-rule="nonzero"/></g><g clip-path="url(#id2)"><path fill="#ffffff" d="M 257.140625 8.339844 L 252.144531 8.339844 L 252.144531 15.832031 L 244.648438 15.832031 L 244.648438 20.828125 L 252.144531 20.828125 L 252.144531 28.324219 L 257.140625 28.324219 L 257.140625 20.828125 L 264.632812 20.828125 L 264.632812 15.832031 L 257.140625 15.832031 L 257.140625 8.339844 " fill-opacity="1" fill-rule="nonzero"/></g><g fill="#000000" fill-opacity="1"><g transform="translate(38.03791, 28.310055)"><g><path d="M 7.171875 0 L 6.421875 -4.375 L 3.03125 -4.375 L 2.3125 0 L 0.390625 0 L 3.46875 -16.828125 L 6.015625 -16.828125 L 9.09375 0 Z M 4.734375 -14.40625 L 3.296875 -5.921875 L 6.15625 -5.921875 Z M 4.734375 -14.40625 "/></g></g></g><g fill="#000000" fill-opacity="1"><g transform="translate(47.515301, 28.310055)"><g><path d="M 3.796875 0.359375 C 2.960938 0.359375 2.316406 -0.00390625 1.859375 -0.734375 C 1.398438 -1.460938 1.171875 -2.78125 1.171875 -4.6875 L 1.171875 -8.296875 C 1.171875 -10.203125 1.398438 -11.519531 1.859375 -12.25 C 2.316406 -12.976562 2.960938 -13.34375 3.796875 -13.34375 C 4.953125 -13.34375 5.738281 -12.65625 6.15625 -11.28125 L 6.15625 -17.796875 L 7.90625 -17.796875 L 7.90625 0 L 6.78125 0 L 6.203125 -2.5 C 5.878906 -0.59375 5.078125 0.359375 3.796875 0.359375 Z M 5.8125 -3.0625 C 5.988281 -3.882812 6.078125 -5.023438 6.078125 -6.484375 C 6.078125 -7.953125 5.984375 -9.097656 5.796875 -9.921875 C 5.617188 -10.742188 5.40625 -11.269531 5.15625 -11.5 C 4.90625 -11.738281 4.582031 -11.859375 4.1875 -11.859375 C 3.363281 -11.859375 2.953125 -10.863281 2.953125 -8.875 L 2.953125 -4.109375 C 2.953125 -3.003906 3.0625 -2.226562 3.28125 -1.78125 C 3.507812 -1.34375 3.820312 -1.125 4.21875 -1.125 C 4.625 -1.125 4.945312 -1.238281 5.1875 -1.46875 C 5.4375 -1.707031 5.644531 -2.238281 5.8125 -3.0625 Z M 5.8125 -3.0625 "/></g></g></g><g fill="#000000" fill-opacity="1"><g transform="translate(56.944581, 28.310055)"><g><path d="M 1.515625 0 L 1.515625 -12.984375 L 3.359375 -12.984375 L 3.359375 0 Z M 1.4375 -15.53125 L 1.4375 -17.796875 L 3.4375 -17.796875 L 3.4375 -15.53125 Z M 1.4375 -15.53125 "/></g></g></g><g fill="#000000" fill-opacity="1"><g transform="translate(61.827601, 28.310055)"><g><path d="M 7.640625 -3.78125 C 7.515625 -2.21875 7.171875 -1.132812 6.609375 -0.53125 C 6.046875 0.0625 5.28125 0.359375 4.3125 0.359375 C 3.34375 0.359375 2.578125 0.0195312 2.015625 -0.65625 C 1.453125 -1.34375 1.171875 -2.523438 1.171875 -4.203125 L 1.171875 -8.296875 C 1.171875 -10.203125 1.453125 -11.519531 2.015625 -12.25 C 2.578125 -12.976562 3.34375 -13.34375 4.3125 -13.34375 C 5.28125 -13.34375 6.035156 -13.078125 6.578125 -12.546875 C 7.128906 -12.023438 7.460938 -11.070312 7.578125 -9.6875 L 5.890625 -9.234375 C 5.828125 -10.984375 5.335938 -11.859375 4.421875 -11.859375 C 3.960938 -11.859375 3.609375 -11.648438 3.359375 -11.234375 C 3.117188 -10.816406 3 -9.953125 3 -8.640625 L 3 -4.046875 C 3 -2.921875 3.125 -2.15625 3.375 -1.75 C 3.625 -1.351562 3.976562 -1.15625 4.4375 -1.15625 C 4.90625 -1.15625 5.269531 -1.347656 5.53125 -1.734375 C 5.789062 -2.128906 5.972656 -2.890625 6.078125 -4.015625 Z M 7.640625 -3.78125 "/></g></g></g><g fill="#000000" fill-opacity="1"><g transform="translate(70.150388, 28.310055)"><g><path d="M 1.515625 0 L 1.515625 -12.984375 L 3.359375 -12.984375 L 3.359375 0 Z M 1.4375 -15.53125 L 1.4375 -17.796875 L 3.4375 -17.796875 L 3.4375 -15.53125 Z M 1.4375 -15.53125 "/></g></g></g><g fill="#000000" fill-opacity="1"><g transform="translate(75.033409, 28.310055)"><g><path d="M 7.9375 -8.296875 L 7.9375 -4.6875 C 7.9375 -2.78125 7.644531 -1.460938 7.0625 -0.734375 C 6.476562 -0.00390625 5.644531 0.359375 4.5625 0.359375 C 3.476562 0.359375 2.640625 -0.00390625 2.046875 -0.734375 C 1.460938 -1.460938 1.171875 -2.78125 1.171875 -4.6875 L 1.171875 -8.296875 C 1.171875 -10.203125 1.460938 -11.519531 2.046875 -12.25 C 2.640625 -12.976562 3.476562 -13.34375 4.5625 -13.34375 C 5.644531 -13.34375 6.476562 -12.976562 7.0625 -12.25 C 7.644531 -11.519531 7.9375 -10.203125 7.9375 -8.296875 Z M 6.078125 -4.359375 L 6.078125 -8.640625 C 6.078125 -10.785156 5.570312 -11.859375 4.5625 -11.859375 C 3.519531 -11.859375 3 -10.785156 3 -8.640625 L 3 -4.359375 C 3 -2.203125 3.519531 -1.125 4.5625 -1.125 C 5.570312 -1.125 6.078125 -2.203125 6.078125 -4.359375 Z M 6.078125 -4.359375 "/></g></g></g><g fill="#000000" fill-opacity="1"><g transform="translate(84.149983, 28.310055)"><g><path d="M 3.359375 0 L 1.515625 0 L 1.515625 -12.984375 L 2.640625 -12.984375 L 3.125 -10.921875 C 3.457031 -12.535156 4.300781 -13.34375 5.65625 -13.34375 C 6.488281 -13.34375 7.125 -12.972656 7.5625 -12.234375 C 8 -11.503906 8.21875 -10.160156 8.21875 -8.203125 L 8.21875 0 L 6.375 0 L 6.375 -8.84375 C 6.375 -10.851562 5.976562 -11.859375 5.1875 -11.859375 C 4.007812 -11.859375 3.398438 -10.140625 3.359375 -6.703125 Z M 3.359375 0 "/></g></g></g><g fill="#000000" fill-opacity="1"><g transform="translate(93.723594, 28.310055)"><g><path d="M 1.078125 -4.015625 C 1.078125 -5.535156 1.300781 -6.570312 1.75 -7.125 C 2.195312 -7.675781 2.835938 -7.953125 3.671875 -7.953125 C 4.503906 -7.953125 5.164062 -7.632812 5.65625 -7 L 5.65625 -9.515625 C 5.65625 -11.054688 5.171875 -11.828125 4.203125 -11.828125 C 3.390625 -11.828125 2.613281 -11.351562 1.875 -10.40625 L 1.21875 -11.765625 C 1.59375 -12.210938 2.0625 -12.585938 2.625 -12.890625 C 3.195312 -13.191406 3.78125 -13.34375 4.375 -13.34375 C 6.457031 -13.34375 7.5 -11.929688 7.5 -9.109375 L 7.5 0 L 6.375 0 L 5.984375 -1.5625 C 5.804688 -0.914062 5.515625 -0.429688 5.109375 -0.109375 C 4.703125 0.203125 4.242188 0.359375 3.734375 0.359375 C 2.859375 0.359375 2.195312 0.0820312 1.75 -0.46875 C 1.300781 -1.019531 1.078125 -2.054688 1.078125 -3.578125 Z M 4.109375 -1.15625 C 4.578125 -1.15625 4.941406 -1.320312 5.203125 -1.65625 C 5.472656 -2 5.625 -2.609375 5.65625 -3.484375 L 5.65625 -4.140625 C 5.625 -5.085938 5.472656 -5.742188 5.203125 -6.109375 C 4.941406 -6.472656 4.578125 -6.65625 4.109375 -6.65625 C 3.304688 -6.65625 2.90625 -5.894531 2.90625 -4.375 L 2.90625 -3.4375 C 2.90625 -1.914062 3.304688 -1.15625 4.109375 -1.15625 Z M 4.109375 -1.15625 "/></g></g></g><g fill="#000000" fill-opacity="1"><g transform="translate(102.575572, 28.310055)"><g><path d="M 5.53125 -13.34375 L 6.015625 -13.328125 L 5.875 -11.28125 C 5.644531 -11.394531 5.425781 -11.453125 5.21875 -11.453125 C 4 -11.453125 3.378906 -10.179688 3.359375 -7.640625 L 3.359375 0 L 1.515625 0 L 1.515625 -12.984375 L 2.640625 -12.984375 L 3.171875 -10.765625 C 3.492188 -12.484375 4.28125 -13.34375 5.53125 -13.34375 Z M 5.53125 -13.34375 "/></g></g></g><g fill="#000000" fill-opacity="1"><g transform="translate(108.781582, 28.310055)"><g/></g></g><g fill="#000000" fill-opacity="1"><g transform="translate(112.245404, 28.310055)"><g><path d="M 7.640625 -3.78125 C 7.515625 -2.21875 7.171875 -1.132812 6.609375 -0.53125 C 6.046875 0.0625 5.28125 0.359375 4.3125 0.359375 C 3.34375 0.359375 2.578125 0.0195312 2.015625 -0.65625 C 1.453125 -1.34375 1.171875 -2.523438 1.171875 -4.203125 L 1.171875 -8.296875 C 1.171875 -10.203125 1.453125 -11.519531 2.015625 -12.25 C 2.578125 -12.976562 3.34375 -13.34375 4.3125 -13.34375 C 5.28125 -13.34375 6.035156 -13.078125 6.578125 -12.546875 C 7.128906 -12.023438 7.460938 -11.070312 7.578125 -9.6875 L 5.890625 -9.234375 C 5.828125 -10.984375 5.335938 -11.859375 4.421875 -11.859375 C 3.960938 -11.859375 3.609375 -11.648438 3.359375 -11.234375 C 3.117188 -10.816406 3 -9.953125 3 -8.640625 L 3 -4.046875 C 3 -2.921875 3.125 -2.15625 3.375 -1.75 C 3.625 -1.351562 3.976562 -1.15625 4.4375 -1.15625 C 4.90625 -1.15625 5.269531 -1.347656 5.53125 -1.734375 C 5.789062 -2.128906 5.972656 -2.890625 6.078125 -4.015625 Z M 7.640625 -3.78125 "/></g></g></g><g fill="#000000" fill-opacity="1"><g transform="translate(120.568191, 28.310055)"><g><path d="M 1.515625 0 L 1.515625 -17.796875 L 3.359375 -17.796875 L 3.359375 0 Z M 1.515625 0 "/></g></g></g><g fill="#000000" fill-opacity="1"><g transform="translate(125.451211, 28.310055)"><g><path d="M 1.515625 0 L 1.515625 -12.984375 L 3.359375 -12.984375 L 3.359375 0 Z M 1.4375 -15.53125 L 1.4375 -17.796875 L 3.4375 -17.796875 L 3.4375 -15.53125 Z M 1.4375 -15.53125 "/></g></g></g><g fill="#000000" fill-opacity="1"><g transform="translate(130.334232, 28.310055)"><g><path d="M 7.890625 -3.359375 C 7.773438 -1.972656 7.441406 -1.003906 6.890625 -0.453125 C 6.347656 0.0859375 5.5625 0.359375 4.53125 0.359375 C 3.5 0.359375 2.679688 -0.00390625 2.078125 -0.734375 C 1.472656 -1.460938 1.171875 -2.78125 1.171875 -4.6875 L 1.171875 -8.296875 C 1.171875 -10.203125 1.472656 -11.519531 2.078125 -12.25 C 2.679688 -12.976562 3.523438 -13.34375 4.609375 -13.34375 C 5.703125 -13.34375 6.53125 -12.984375 7.09375 -12.265625 C 7.65625 -11.546875 7.9375 -10.222656 7.9375 -8.296875 L 7.9375 -5.71875 L 3 -5.71875 L 3 -4.359375 C 3 -2.203125 3.515625 -1.125 4.546875 -1.125 C 5.046875 -1.125 5.429688 -1.300781 5.703125 -1.65625 C 5.972656 -2.007812 6.164062 -2.664062 6.28125 -3.625 Z M 3 -8.640625 L 3 -7.265625 L 6.078125 -7.265625 L 6.078125 -8.640625 C 6.078125 -10.785156 5.570312 -11.859375 4.5625 -11.859375 C 3.519531 -11.859375 3 -10.785156 3 -8.640625 Z M 3 -8.640625 "/></g></g></g><g fill="#000000" fill-opacity="1"><g transform="translate(139.450806, 28.310055)"><g><path d="M 3.359375 0 L 1.515625 0 L 1.515625 -12.984375 L 2.640625 -12.984375 L 3.125 -10.921875 C 3.457031 -12.535156 4.300781 -13.34375 5.65625 -13.34375 C 6.488281 -13.34375 7.125 -12.972656 7.5625 -12.234375 C 8 -11.503906 8.21875 -10.160156 8.21875 -8.203125 L 8.21875 0 L 6.375 0 L 6.375 -8.84375 C 6.375 -10.851562 5.976562 -11.859375 5.1875 -11.859375 C 4.007812 -11.859375 3.398438 -10.140625 3.359375 -6.703125 Z M 3.359375 0 "/></g></g></g><g fill="#000000" fill-opacity="1"><g transform="translate(149.024417, 28.310055)"><g><path d="M 0.484375 -11.5 L 0.484375 -12.984375 L 1.75 -12.984375 L 2.40625 -16.1875 L 3.515625 -16.1875 L 3.515625 -12.984375 L 5.21875 -12.984375 L 5.21875 -11.5 L 3.515625 -11.5 L 3.515625 -2.453125 C 3.515625 -1.597656 3.742188 -1.171875 4.203125 -1.171875 C 4.515625 -1.171875 4.835938 -1.300781 5.171875 -1.5625 L 5.53125 -0.140625 C 4.988281 0.191406 4.425781 0.359375 3.84375 0.359375 C 2.40625 0.359375 1.6875 -0.707031 1.6875 -2.84375 L 1.6875 -11.5 Z M 0.484375 -11.5 "/></g></g></g><g fill="#000000" fill-opacity="1"><g transform="translate(154.77339, 28.310055)"><g><path d="M 7.890625 -3.359375 C 7.773438 -1.972656 7.441406 -1.003906 6.890625 -0.453125 C 6.347656 0.0859375 5.5625 0.359375 4.53125 0.359375 C 3.5 0.359375 2.679688 -0.00390625 2.078125 -0.734375 C 1.472656 -1.460938 1.171875 -2.78125 1.171875 -4.6875 L 1.171875 -8.296875 C 1.171875 -10.203125 1.472656 -11.519531 2.078125 -12.25 C 2.679688 -12.976562 3.523438 -13.34375 4.609375 -13.34375 C 5.703125 -13.34375 6.53125 -12.984375 7.09375 -12.265625 C 7.65625 -11.546875 7.9375 -10.222656 7.9375 -8.296875 L 7.9375 -5.71875 L 3 -5.71875 L 3 -4.359375 C 3 -2.203125 3.515625 -1.125 4.546875 -1.125 C 5.046875 -1.125 5.429688 -1.300781 5.703125 -1.65625 C 5.972656 -2.007812 6.164062 -2.664062 6.28125 -3.625 Z M 3 -8.640625 L 3 -7.265625 L 6.078125 -7.265625 L 6.078125 -8.640625 C 6.078125 -10.785156 5.570312 -11.859375 4.5625 -11.859375 C 3.519531 -11.859375 3 -10.785156 3 -8.640625 Z M 3 -8.640625 "/></g></g></g><path stroke-linecap="butt" transform="matrix(-0.0000000000000018, -0.756054, 0.740132, -0.000000000000001762, 254.813175, 26.835552)" fill="none" stroke-linejoin="miter" d="M -0.000510058 -0.000911633 L 22.520827 -0.000911633 " stroke="#000000" stroke-width="1" stroke-opacity="1" stroke-miterlimit="4"/><path stroke-linecap="butt" transform="matrix(-0.756054, 0.000000000000001771, -0.000000000000001734, -0.740132, 263.145436, 18.50329)" fill="none" stroke-linejoin="miter" d="M 0.00119662 -0.000833042 L 22.517367 -0.000833042 " stroke="#000000" stroke-width="1" stroke-opacity="1" stroke-miterlimit="4"/></svg>