<svg xmlns="http://www.w3.org/2000/svg" xmlns:xlink="http://www.w3.org/1999/xlink" width="500" zoomAndPan="magnify" viewBox="0 0 375 374.999991" height="500" preserveAspectRatio="xMidYMid meet" version="1.0"><defs><g/></defs><path fill="#919191" d="M 187.65625 6.53125 C 87.625 6.53125 6.53125 87.625 6.53125 187.65625 C 6.53125 287.691406 87.625 368.78125 187.65625 368.78125 C 287.691406 368.78125 368.78125 287.691406 368.78125 187.65625 C 368.78125 87.625 287.691406 6.53125 187.65625 6.53125 " fill-opacity="1" fill-rule="nonzero"/><path fill="#ffffff" d="M 258.921875 199.125 C 246.289062 199.125 236.046875 209.367188 236.046875 222 C 236.046875 234.636719 246.289062 244.875 258.921875 244.875 C 271.558594 244.875 281.796875 234.636719 281.796875 222 C 281.796875 209.367188 271.558594 199.125 258.921875 199.125 " fill-opacity="1" fill-rule="nonzero"/><path fill="#ffffff" d="M 258.9375 118.664062 C 248.375 118.664062 239.8125 127.226562 239.8125 137.789062 C 239.8125 148.351562 248.375 156.914062 258.9375 156.914062 C 269.5 156.914062 278.0625 148.351562 278.0625 137.789062 C 278.0625 127.226562 269.5 118.664062 258.9375 118.664062 " fill-opacity="1" fill-rule="nonzero"/><path fill="#ffffff" d="M 258.738281 162.445312 C 250.246094 162.445312 243.363281 169.328125 243.363281 177.820312 C 243.363281 186.3125 250.246094 193.195312 258.738281 193.195312 C 267.226562 193.195312 274.113281 186.3125 274.113281 177.820312 C 274.113281 169.328125 267.226562 162.445312 258.738281 162.445312 " fill-opacity="1" fill-rule="nonzero"/><path fill="#ffffff" d="M 314.941406 227.191406 C 302.308594 227.191406 292.066406 237.433594 292.066406 250.066406 C 292.066406 262.703125 302.308594 272.941406 314.941406 272.941406 C 327.574219 272.941406 337.816406 262.703125 337.816406 250.066406 C 337.816406 237.433594 327.574219 227.191406 314.941406 227.191406 " fill-opacity="1" fill-rule="nonzero"/><path fill="#ffffff" d="M 314.957031 146.730469 C 304.394531 146.730469 295.832031 155.292969 295.832031 165.855469 C 295.832031 176.417969 304.394531 184.980469 314.957031 184.980469 C 325.519531 184.980469 334.082031 176.417969 334.082031 165.855469 C 334.082031 155.292969 325.519531 146.730469 314.957031 146.730469 " fill-opacity="1" fill-rule="nonzero"/><path fill="#ffffff" d="M 314.753906 190.511719 C 306.265625 190.511719 299.378906 197.394531 299.378906 205.886719 C 299.378906 214.378906 306.265625 221.261719 314.753906 221.261719 C 323.246094 221.261719 330.128906 214.378906 330.128906 205.886719 C 330.128906 197.394531 323.246094 190.511719 314.753906 190.511719 " fill-opacity="1" fill-rule="nonzero"/><g fill="#000000" fill-opacity="1"><g transform="translate(55.965553, 266.402581)"><g><path d="M 165.78125 -52.3125 C 165.78125 -35.800781 159.757812 -22.953125 147.71875 -13.765625 C 135.6875 -4.585938 118.953125 0 97.515625 0 L 22.140625 0 L 22.140625 -185.6875 L 89.609375 -185.6875 C 133.179688 -185.6875 154.96875 -170.660156 154.96875 -140.609375 C 154.96875 -129.628906 151.894531 -120.40625 145.75 -112.9375 C 139.601562 -105.46875 130.90625 -100.460938 119.65625 -97.921875 C 134.414062 -96.160156 145.789062 -91.21875 153.78125 -83.09375 C 161.78125 -74.96875 165.78125 -64.707031 165.78125 -52.3125 Z M 129.671875 -137.578125 C 129.671875 -147.597656 126.242188 -154.757812 119.390625 -159.0625 C 112.535156 -163.363281 102.609375 -165.515625 89.609375 -165.515625 L 47.3125 -165.515625 L 47.3125 -106.75 L 89.609375 -106.75 C 103.054688 -106.75 113.09375 -109.273438 119.71875 -114.328125 C 126.351562 -119.378906 129.671875 -127.128906 129.671875 -137.578125 Z M 140.34375 -54.296875 C 140.34375 -76.171875 124.96875 -87.109375 94.21875 -87.109375 L 47.3125 -87.109375 L 47.3125 -20.15625 L 96.203125 -20.15625 C 111.578125 -20.15625 122.773438 -23.007812 129.796875 -28.71875 C 136.828125 -34.4375 140.34375 -42.960938 140.34375 -54.296875 Z M 140.34375 -54.296875 "/></g></g></g><g fill="#ffffff" fill-opacity="1"><g transform="translate(81.408976, 290.381028)"><g><path d="M 22.140625 0 L 22.140625 -185.703125 L 47.3125 -185.703125 L 47.3125 -20.5625 L 141.15625 -20.5625 L 141.15625 0 Z M 22.140625 0 "/></g></g></g></svg>